<?xml version="1.0" encoding="UTF-8" standalone="no"?>
<svg
   xmlns:dc="http://purl.org/dc/elements/1.1/"
   xmlns:cc="http://creativecommons.org/ns#"
   xmlns:rdf="http://www.w3.org/1999/02/22-rdf-syntax-ns#"
   xmlns:svg="http://www.w3.org/2000/svg"
   xmlns="http://www.w3.org/2000/svg"
   xmlns:sodipodi="http://sodipodi.sourceforge.net/DTD/sodipodi-0.dtd"
   xmlns:inkscape="http://www.inkscape.org/namespaces/inkscape"
   viewBox="0 0 32 32"
   version="1.1"
   id="svg4"
   sodipodi:docname="logo.svg"
   inkscape:version="0.92.1 r15371"
   inkscape:export-filename="D:\IdeaProjects\Java\ArcherGame\src\main\resources\logo-24.png"
   inkscape:export-xdpi="72"
   inkscape:export-ydpi="72">
  <metadata
     id="metadata10">
    <rdf:RDF>
      <cc:Work
         rdf:about="">
        <dc:format>image/svg+xml</dc:format>
        <dc:type
           rdf:resource="http://purl.org/dc/dcmitype/StillImage" />
        <dc:title></dc:title>
      </cc:Work>
    </rdf:RDF>
  </metadata>
  <defs
     id="defs8" />
  <sodipodi:namedview
     pagecolor="#ffffff"
     bordercolor="#666666"
     borderopacity="1"
     objecttolerance="10"
     gridtolerance="10"
     guidetolerance="10"
     inkscape:pageopacity="0"
     inkscape:pageshadow="2"
     inkscape:window-width="640"
     inkscape:window-height="480"
     id="namedview6"
     showgrid="false"
     inkscape:zoom="16.99942"
     inkscape:cx="19.90264"
     inkscape:cy="17.14076"
     inkscape:current-layer="svg4" />
  <path
     style="color:#000000;font-weight:400;line-height:normal;font-family:sans-serif;text-indent:0;text-align:start;text-decoration:none;text-decoration-line:none;text-decoration-style:solid;text-decoration-color:#000000;text-transform:none;white-space:normal;overflow:visible;isolation:auto;mix-blend-mode:normal;fill:#323232;fill-opacity:1"
     d="M 5,3 V 4 C 5,5.036637 5.473075,5.835964 6.03125,6.320312 L 7.640625,20 H 9.183594 L 9.603516,19.57813 8.123047,7 H 13 c 4.01447,0 6.54488,1.939968 7.61328,2.974609 L 9.595703,21 H 6 L 3,24 8.007813,24.006 8,29 11,26 11.01172,22.41406 22.02734,11.38867 C 23.06241,12.4581 25,14.98771 25,19 v 4.87695 L 12.44141,22.39844 12,22.83984 v 1.51954 l 13.67969,1.60937 C 26.16404,26.52692 26.96336,27 28,27 h 1 V 25 H 28 C 27.27855,25 27.2387,24.81377 27.12109,24.56836 27.00348,24.32295 27,24.04102 27,24.04102 V 24.02148 19 C 27,14.37258 24.69454,11.32263 23.42773,9.988281 L 25.70703,7.707031 27,9 l 1,-5 -5,1 1.29297,1.292969 -2.2793,2.28125 C 20.68029,7.307786 17.6295,5 13,5 H 7.978516 7.958984 c 0,0 -0.281938,-0.0035 -0.527343,-0.121094 C 7.186235,4.761296 7,4.721449 7,4 V 3 Z"
     font-weight="400"
     overflow="visible"
     id="path2"
     inkscape:connector-curvature="0"
     transform="matrix(1.230769,0,0,1.230769,-3.692308,-3.692308)" />
</svg>
