<svg xmlns="http://www.w3.org/2000/svg" viewBox="0 0 32 32">
    <path d="M2.46 0v1.23c0 1.28.58 2.26 1.27 2.86l1.98 16.83h1.9l.52-.52L6.3 4.92h6c4.94 0 8.05 2.4 9.37 3.66L8.12 22.15H3.69L0 25.85h6.16V32l3.69-3.7.01-4.4 13.56-13.58a13.34 13.34 0 0 1 3.66 9.37v6l-15.46-1.82-.54.55v1.87l16.83 1.98c.6.69 1.58 1.27 2.86 1.27H32v-2.46h-1.23c-.89 0-.94-.23-1.08-.53-.15-.3-.15-.65-.15-.65v-6.21c0-5.7-2.84-9.45-4.4-11.09l2.8-2.8 1.6 1.58 1.23-6.15-6.15 1.23 1.59 1.6-2.8 2.8a16.07 16.07 0 0 0-11.1-4.4H6.1s-.34 0-.65-.15c-.3-.14-.53-.2-.53-1.08V0z"
          fill="#323232"/>
</svg>